<svg width="141" height="64" viewBox="0 0 141 64" fill="none" xmlns="http://www.w3.org/2000/svg">
<path d="M38.6229 5.54561C38.5016 5.45318 38.3447 5.3252 38.1736 5.21856C35.5279 3.50509 32.6968 2.204 29.6018 1.52857C20.2384 -0.504838 12.073 1.37215 5.71192 8.9441C2.58842 12.6696 0.506077 16.8786 0.0781991 21.7631C-0.314022 26.2351 0.791329 30.4868 2.90932 34.3474C5.27691 38.6631 8.86396 41.8625 13.4636 43.7893C14.6688 44.2941 15.9739 44.5713 17.3645 44.9908C17.3859 44.4718 17.4073 44.1874 17.4144 43.903C17.4358 42.3104 17.3288 40.7036 17.5142 39.1323C17.6782 37.7104 17.1291 36.9923 15.8954 36.459C13.7917 35.549 12.4795 33.8711 11.7521 31.7524C10.4756 28.0339 10.1476 24.2231 10.8393 20.3411C12.3298 11.9231 19.9246 7.04578 27.2128 8.90144C31.0352 9.87548 33.9804 11.9515 35.8417 15.4069C38.8225 20.9597 38.1308 26.5338 35.428 31.9159C34.1515 34.4612 32.2261 36.5301 29.0241 36.7577C28.3395 36.8074 28.0899 36.7221 28.0828 35.9614C28.0614 33.544 27.9402 31.1338 27.876 28.7165C27.8617 28.2188 27.7904 27.8704 27.1629 27.8562C25.1804 27.8135 23.205 27.7424 21.2296 27.65C20.6021 27.6216 20.4167 27.8562 20.4238 28.4747C20.5236 36.0182 20.6092 43.5617 20.6948 51.1052C20.6948 51.4536 20.7376 51.802 20.759 52.1788H28.0543C28.0543 50.9275 28.0543 49.7259 28.0543 48.5315C28.0543 45.6805 28.0258 45.5738 30.7927 44.7988C36.0057 43.3413 40.313 40.597 43.6005 36.2955C45.7042 33.544 47.102 30.5081 47.3801 27.0243C47.4015 26.7115 47.1947 26.2351 46.9379 26.0645C45.5402 25.1331 44.007 24.3937 42.6806 23.377C38.1665 19.9145 36.2553 15.35 37.325 9.71195C37.5888 8.31132 38.1807 6.97468 38.6371 5.55272L38.6229 5.54561Z" fill="black"/>
<path d="M93.9831 0.0212402C88.7274 0.0496795 83.6142 0.39806 78.7435 2.30349C71.5338 5.11897 66.7416 10.1456 64.7163 17.682C64.5451 18.3219 64.6664 18.6276 65.2511 18.9333C66.5276 19.6159 67.7685 20.3553 68.9951 21.1231C70.5639 22.1114 71.8761 23.3627 72.8816 24.934C75.6129 29.1786 75.6272 33.6435 73.9442 38.2293C73.281 40.0352 73.2453 39.9784 74.8712 41.0448C78.3513 43.3271 82.1594 44.4575 86.3241 44.4575C92.7993 44.4504 99.2674 44.4717 105.743 44.4646C113.929 44.4575 122.116 44.4291 130.31 44.4149C133.84 44.4149 137.377 44.4149 141 44.4149C140.914 44.0381 140.914 43.8532 140.836 43.7039C139.516 41.2723 138.197 38.8337 136.835 36.4306C136.7 36.1959 136.286 35.9969 136.001 35.9969C129.704 35.8902 123.407 35.7409 117.117 35.748C109.166 35.7551 101.214 35.9329 93.2629 35.9613C90.8453 35.9684 88.4136 35.8618 86.0103 35.5987C82.352 35.1935 79.2142 33.6435 77.246 30.437C74.7999 26.4484 74.2793 22.0687 75.5059 17.5967C76.3831 14.4044 78.2444 11.8022 81.6103 10.7784C83.4074 10.238 85.2758 9.88965 87.1442 9.64792C89.4761 9.3422 91.8366 9.23555 94.2969 9.03648C94.1971 6.09302 94.0972 3.13534 93.9903 0.0425697L93.9831 0.0212402Z" fill="black"/>
<path d="M69.9079 0.277277C69.5228 0.241728 69.209 0.191959 68.8881 0.199069C64.6949 0.227508 60.4874 0.106641 56.3085 0.348375C53.62 0.504791 50.8958 0.981148 48.3072 1.71346C41.561 3.63311 38.4161 10.1812 41.2329 16.3241C42.6093 19.3173 45.0767 21.3507 47.972 22.858C51.4521 24.6639 54.9963 26.3632 58.4122 28.2757C61.3503 29.9181 62.0349 31.8875 61.1292 35.1367C61.0508 35.4068 60.8083 35.7694 60.573 35.8263C59.2965 36.1534 57.9986 36.5871 56.7007 36.6226C53.8696 36.7079 51.0313 36.5728 48.1931 36.5231C47.5655 36.5089 47.0164 36.5444 46.503 37.0563C44.7558 38.8053 43.0086 40.5686 41.1402 42.1825C40.3486 42.865 40.0491 43.5191 40.099 44.5074C40.1276 45.133 40.2773 45.4174 40.9334 45.4388C42.4952 45.4814 44.064 45.645 45.6258 45.6378C49.9973 45.6165 54.3688 45.4957 58.7474 45.4885C65.0301 45.4885 72.9601 40.1988 72.197 31.0912C72.0045 28.816 71.4482 26.6262 69.6226 25.0763C68.4388 24.0667 67.1694 23.114 65.8002 22.3817C63.0975 20.9384 60.3091 19.6515 57.5493 18.322C55.631 17.3906 53.7412 16.445 52.2864 14.8168C51.1668 13.5655 50.796 12.1649 51.3094 10.5652C51.4022 10.2737 51.6731 9.87552 51.9227 9.81864C53.0994 9.56268 54.2975 9.29251 55.4955 9.24985C58.1198 9.15743 60.7513 9.17165 63.3827 9.20719C64.9088 9.22852 66.221 8.98679 67.0268 7.47951C67.3691 6.83963 67.8754 6.25662 68.4103 5.75894C70.0434 4.23744 69.7938 2.26091 69.9079 0.270167V0.277277Z" fill="black"/>
<path d="M49.2128 53.4159C50.361 52.5983 50.418 52.3708 49.6336 51.866C47.0592 50.2165 43.4222 51.2332 42.1814 54.006C41.1973 56.203 41.2828 58.4283 42.4024 60.5613C43.0514 61.7984 44.114 62.68 45.5188 62.7866C46.8595 62.8933 48.2216 62.7227 49.5765 62.616C49.7833 62.6018 50.1399 62.289 50.1399 62.1112C50.1827 60.5044 50.1684 58.8905 50.1684 57.3192C50.0401 57.2481 49.9901 57.1983 49.9402 57.1983C49.0559 57.1912 48.1717 57.1912 47.2803 57.1841C46.8025 57.1841 46.3247 57.0988 46.3175 57.8453C46.3104 58.5279 46.6741 58.5776 47.2089 58.5918C48.4926 58.6203 48.6138 58.7838 48.5211 60.0707C48.4997 60.3622 48.4997 60.6679 48.4213 60.9452C48.3713 61.1229 48.2358 61.3433 48.079 61.4073C46.6884 61.9974 44.3921 61.0376 43.8216 59.5517C43.1869 57.9022 43.2653 56.1958 43.8358 54.5393C44.4277 52.8116 47.0307 51.7593 49.2057 53.4017L49.2128 53.4159Z" fill="black"/>
<path d="M104.716 51.0485C104.673 51.1409 104.609 51.2191 104.609 51.2974C104.637 54.2692 104.623 57.2411 104.73 60.213C104.766 61.2653 105.415 62.0829 106.392 62.5593C109.059 63.8746 112.111 62.2536 112.261 59.3314C112.389 56.779 112.275 54.2053 112.261 51.6457C112.261 50.6717 111.49 51.0627 111.02 50.9987C110.435 50.9205 110.492 51.3187 110.492 51.7453C110.521 54.1271 110.563 56.5159 110.485 58.8977C110.464 59.5732 110.178 60.3552 109.75 60.8743C109.166 61.5852 108.239 61.6279 107.383 61.2582C106.499 60.8671 106.156 60.0851 106.149 59.1821C106.128 56.8288 106.142 54.4683 106.142 52.115C106.142 51.7737 106.142 51.4395 106.142 51.0556H104.723L104.716 51.0485Z" fill="black"/>
<path d="M38.6229 5.54575C38.1665 6.96771 37.5746 8.30435 37.3107 9.70499C36.241 15.3431 38.1522 19.9076 42.6663 23.37C43.9927 24.3867 45.526 25.1333 46.9237 26.0575C47.1804 26.2282 47.3944 26.7045 47.3658 27.0174C47.0877 30.5012 45.69 33.5371 43.5862 36.2886C40.2987 40.59 35.9914 43.3344 30.7784 44.7919C28.0115 45.5669 28.04 45.6735 28.04 48.5245C28.04 49.7261 28.04 50.9276 28.04 52.1719H20.7447C20.7233 51.795 20.6805 51.4467 20.6805 51.0983C20.5878 43.5548 20.5094 36.0113 20.4095 28.4678C20.4024 27.8563 20.5878 27.6146 21.2154 27.643C23.1907 27.7355 25.1732 27.8066 27.1486 27.8492C27.7833 27.8634 27.8475 28.2118 27.8617 28.7095C27.9259 31.1268 28.0471 33.5371 28.0685 35.9544C28.0757 36.7223 28.3324 36.8005 29.0099 36.7507C32.2118 36.5232 34.1373 34.4471 35.4138 31.9089C38.1165 26.5268 38.8083 20.9527 35.8274 15.3999C33.9733 11.9446 31.0209 9.86851 27.1985 8.89447C19.9103 7.03881 12.3226 11.9161 10.8251 20.3341C10.1405 24.209 10.4614 28.027 11.7379 31.7454C12.4653 33.8641 13.7774 35.542 15.8812 36.4521C17.1149 36.9853 17.664 37.7034 17.5 39.1254C17.3145 40.6966 17.4215 42.3035 17.4001 43.896C17.4001 44.1804 17.3787 44.4719 17.3502 44.9838C15.9596 44.5644 14.6546 44.2871 13.4494 43.7823C8.8497 41.8555 5.26266 38.6561 2.89507 34.3405C0.791332 30.487 -0.314018 26.2353 0.0782029 21.7632C0.506081 16.8788 2.58842 12.6698 5.71906 8.95135C12.0802 1.3794 20.2384 -0.504697 29.6089 1.52871C32.7039 2.20414 35.5279 3.50523 38.1807 5.2187C38.3519 5.32535 38.5088 5.46043 38.63 5.54575H38.6229Z" fill="black"/>
<path d="M93.9831 0.0213294C94.0901 3.1141 94.1899 6.07177 94.2898 9.01523C91.8295 9.21431 89.4761 9.32096 87.1371 9.62668C85.2758 9.86841 83.4003 10.2168 81.6032 10.7571C78.2301 11.7738 76.376 14.376 75.4988 17.5754C74.2722 22.0475 74.7928 26.4272 77.2388 30.4158C79.2071 33.6294 82.3448 35.1722 86.0032 35.5775C88.4064 35.8476 90.8382 35.9543 93.2557 35.9401C101.207 35.9116 109.159 35.7339 117.11 35.7268C123.407 35.7197 129.704 35.869 135.994 35.9756C136.279 35.9756 136.7 36.1747 136.828 36.4093C138.19 38.8195 139.509 41.2511 140.829 43.6827C140.907 43.8249 140.907 44.0168 140.993 44.3936C137.37 44.3936 133.84 44.3936 130.303 44.3936C122.116 44.4079 113.929 44.4363 105.736 44.4434C99.2603 44.4434 92.7922 44.4221 86.317 44.4363C82.1523 44.4363 78.3442 43.3058 74.8641 41.0236C73.2382 39.9571 73.2738 40.014 73.937 38.2081C75.6272 33.6294 75.6058 29.1644 72.8745 24.9128C71.869 23.3415 70.5568 22.0902 68.9879 21.1019C67.7613 20.334 66.5205 19.5946 65.244 18.9121C64.6664 18.5993 64.538 18.3006 64.7091 17.6608C66.7344 10.1244 71.5195 5.10484 78.7364 2.28225C83.6071 0.37682 88.7202 0.0284392 93.976 0L93.9831 0.0213294Z" fill="black"/>
<path d="M69.9079 0.277182C69.7938 2.26793 70.0434 4.24445 68.4103 5.76595C67.8754 6.26364 67.3691 6.84664 67.0268 7.48653C66.221 8.99381 64.9088 9.23554 63.3827 9.21421C60.7513 9.17866 58.1198 9.16444 55.4955 9.25687C54.2975 9.29953 53.0994 9.5697 51.9227 9.82565C51.6731 9.88253 51.4021 10.2736 51.3094 10.5722C50.8031 12.1648 51.1668 13.5654 52.2864 14.8238C53.7412 16.452 55.631 17.4047 57.5493 18.329C60.3091 19.6656 63.0975 20.9454 65.8002 22.3887C67.1694 23.121 68.4388 24.0737 69.6226 25.0833C71.4482 26.6403 72.0116 28.8231 72.197 31.0982C72.9601 40.2059 65.0301 45.4884 58.7474 45.4956C54.3759 45.4956 50.0044 45.6235 45.6258 45.6449C44.064 45.6449 42.5023 45.4884 40.9334 45.4458C40.2702 45.4245 40.1276 45.1472 40.099 44.5144C40.0563 43.5261 40.3558 42.872 41.1402 42.1895C43.0086 40.5756 44.7558 38.8194 46.5029 37.0633C47.0164 36.5514 47.5655 36.5159 48.1931 36.5301C51.0313 36.587 53.8696 36.7149 56.7007 36.6296C57.9986 36.5941 59.2965 36.1533 60.573 35.8333C60.8083 35.7764 61.0579 35.4138 61.1292 35.1437C62.0349 31.9016 61.3503 29.9251 58.4122 28.2827C54.9892 26.3702 51.4521 24.6709 47.972 22.865C45.0767 21.3578 42.6021 19.3315 41.2329 16.3311C38.4161 10.1883 41.561 3.64012 48.3072 1.72047C50.8958 0.981053 53.62 0.511806 56.3085 0.35539C60.4874 0.106547 64.6949 0.227413 68.8881 0.206084C69.2019 0.206084 69.5228 0.255853 69.9079 0.284292V0.277182Z" fill="black"/>
<path d="M62.9691 62.7796C62.9691 58.9901 62.9691 55.2575 62.9905 51.5248C62.9905 51.3542 63.2972 51.0413 63.4469 51.0485C65.1228 51.1196 66.8058 51.1409 68.4531 51.3755C69.5727 51.5319 70.5069 52.1931 70.6852 53.4516C70.8849 54.8309 71.056 56.2884 69.7438 57.2482C68.938 57.8383 68.938 58.3573 69.3659 59.1465C69.9863 60.3054 70.4998 61.5212 71.0631 62.7228C69.8366 63.1778 69.3088 62.9858 68.8524 61.9478C68.4602 61.0591 68.0323 60.1846 67.74 59.2603C67.4832 58.4427 67.0411 58.1796 66.1996 58.2151C64.6307 58.2862 64.6093 58.2578 64.6022 59.8006C64.6022 60.5329 64.538 61.2795 64.6022 62.0047C64.6735 62.8507 64.3169 63.0498 63.5681 62.8721C63.4255 62.8365 63.2758 62.8223 62.9691 62.7796ZM64.6378 54.8735C64.6616 56.1817 65.3415 56.805 66.6774 56.7434C66.8271 56.7434 66.9698 56.7221 67.1195 56.7079C68.446 56.587 69.1876 55.8547 69.1876 54.6745C69.1876 53.5369 68.3604 52.7193 67.1053 52.6055C64.7091 52.3851 64.595 52.4918 64.6378 54.8735Z" fill="black"/>
<path d="M125.347 50.8777C127.201 51.0554 129.005 51.0696 130.738 51.4322C132.613 51.8233 133.59 53.551 133.384 55.5559C133.155 57.76 131.836 59.1535 129.839 59.2957C129.219 59.3384 128.606 59.4023 127.985 59.4095C127.4 59.4166 127.158 59.637 127.158 60.2555C127.158 61.1016 127.058 61.9477 126.994 62.8435H125.339V50.8777H125.347ZM128.634 52.4987C127.201 52.5272 127.194 52.5272 127.165 53.9491C127.151 54.653 127.122 55.3569 127.151 56.0607C127.229 58.0728 127.35 58.1652 129.39 57.9093C129.447 57.9022 129.511 57.9093 129.568 57.888C130.574 57.6107 131.365 57.0063 131.594 56.0039C131.843 54.9161 131.8 53.75 130.702 53.0888C130.11 52.7333 129.326 52.6836 128.634 52.4916V52.4987Z" fill="black"/>
<path d="M87.5436 62.8721C85.1546 62.8508 83.6499 61.571 83.4074 59.175C83.2648 57.7815 83.2149 56.3453 83.386 54.9589C83.6713 52.6126 85.3757 51.084 87.4723 51.0485C89.5974 51.0129 91.2518 52.4633 91.6441 54.8522C91.9436 56.6581 92.0719 58.4782 91.3873 60.2557C90.6742 62.0971 89.5189 62.9005 87.5436 62.8792V62.8721ZM84.7267 57.4544C84.9834 58.464 85.1118 59.4381 85.4898 60.3126C85.882 61.2226 86.752 61.6137 87.7432 61.5639C88.6418 61.5212 89.5189 60.8031 89.7543 59.9429C90.2606 58.0943 90.3604 56.2315 89.7899 54.3759C89.4405 53.2454 88.6418 52.634 87.4437 52.5913C86.5808 52.5558 85.6324 53.1957 85.3471 54.2052C85.0476 55.2717 84.9264 56.3808 84.7267 57.4615V57.4544Z" fill="black"/>
<path d="M49.2128 53.4161C47.0378 51.7808 44.4349 52.826 43.843 54.5537C43.2725 56.2102 43.194 57.9095 43.8287 59.5661C44.3992 61.052 46.6955 62.0119 48.0861 61.4217C48.243 61.3577 48.3785 61.1373 48.4284 60.9596C48.5068 60.6823 48.5068 60.3766 48.5282 60.0851C48.6209 58.7982 48.4926 58.6347 47.2161 58.6063C46.6741 58.592 46.3104 58.5423 46.3247 57.8597C46.3318 57.1132 46.8096 57.1914 47.2874 57.1985C48.1717 57.2056 49.0559 57.1985 49.9474 57.2127C49.9973 57.2127 50.0472 57.2625 50.1756 57.3336C50.1756 58.9049 50.197 60.5188 50.147 62.1256C50.147 62.3034 49.7905 62.6162 49.5837 62.6304C48.2358 62.737 46.8666 62.9006 45.526 62.801C44.1211 62.6944 43.0585 61.8128 42.4096 60.5757C41.29 58.4427 41.2115 56.2102 42.1885 54.0204C43.4294 51.2476 47.0663 50.2309 49.6407 51.8804C50.4252 52.3852 50.3681 52.6056 49.22 53.4303L49.2128 53.4161Z" fill="black"/>
<path d="M104.716 51.0485H106.135C106.135 51.4325 106.135 51.7666 106.135 52.1079C106.135 54.4612 106.121 56.8217 106.142 59.175C106.149 60.0851 106.491 60.8601 107.376 61.2511C108.231 61.6279 109.159 61.5853 109.743 60.8672C110.171 60.3482 110.456 59.5661 110.478 58.8907C110.563 56.5089 110.513 54.12 110.485 51.7382C110.485 51.3116 110.428 50.9134 111.013 50.9917C111.49 51.0556 112.254 50.6646 112.254 51.6386C112.268 54.1982 112.375 56.7648 112.254 59.3244C112.104 62.2465 109.052 63.8675 106.384 62.5522C105.407 62.0687 104.766 61.2582 104.723 60.206C104.616 57.2341 104.63 54.2622 104.602 51.2903C104.602 51.2121 104.666 51.1339 104.709 51.0414L104.716 51.0485Z" fill="black"/>
</svg>
