<svg width="48" height="53" viewBox="0 0 48 53" fill="none" xmlns="http://www.w3.org/2000/svg">
<path d="M38.6228 5.54585C38.5016 5.45342 38.3447 5.32545 38.1736 5.2188C35.5278 3.50534 32.6967 2.20424 29.6017 1.52881C20.2383 -0.504594 12.073 1.3724 5.71189 8.94434C2.58839 12.6699 0.506046 16.8789 0.0781686 21.7633C-0.314053 26.2354 0.791298 30.4871 2.90929 34.3477C5.27688 38.6633 8.86393 41.8627 13.4636 43.7895C14.6688 44.2943 15.9738 44.5716 17.3644 44.9911C17.3858 44.472 17.4072 44.1876 17.4144 43.9033C17.4357 42.3107 17.3288 40.7038 17.5142 39.1326C17.6782 37.7106 17.1291 36.9925 15.8954 36.4593C13.7917 35.5492 12.4795 33.8713 11.7521 31.7526C10.4756 28.0342 10.1476 24.2233 10.8393 20.3414C12.3297 11.9233 19.9246 7.04602 27.2128 8.90168C31.0351 9.87572 33.9804 11.9518 35.8416 15.4072C38.8225 20.9599 38.1308 26.534 35.428 31.9161C34.1515 34.4614 32.2261 36.5304 29.0241 36.7579C28.3395 36.8077 28.0899 36.7224 28.0828 35.9616C28.0614 33.5443 27.9401 31.134 27.876 28.7167C27.8617 28.219 27.7904 27.8706 27.1628 27.8564C25.1803 27.8138 23.205 27.7427 21.2296 27.6502C20.602 27.6218 20.4166 27.8564 20.4238 28.475C20.5236 36.0185 20.6092 43.562 20.6947 51.1055C20.6947 51.4539 20.7375 51.8023 20.7589 52.1791H28.0542C28.0542 50.9277 28.0542 49.7262 28.0542 48.5317C28.0542 45.6807 28.0257 45.5741 30.7927 44.7991C36.0056 43.3416 40.3129 40.5972 43.6005 36.2958C45.7042 33.5443 47.1019 30.5084 47.3801 27.0246C47.4015 26.7117 47.1946 26.2354 46.9379 26.0648C45.5402 25.1334 44.007 24.3939 42.6805 23.3772C38.1664 19.9148 36.2552 15.3503 37.3249 9.7122C37.5888 8.31157 38.1807 6.97492 38.6371 5.55296L38.6228 5.54585Z" fill="white"/>
</svg>
