<svg width="141" height="64" viewBox="0 0 141 64" fill="none" xmlns="http://www.w3.org/2000/svg">
<path d="M38.6228 5.54585C38.5016 5.45342 38.3447 5.32545 38.1736 5.2188C35.5278 3.50534 32.6967 2.20424 29.6017 1.52881C20.2383 -0.504594 12.073 1.3724 5.71189 8.94434C2.58839 12.6699 0.506046 16.8789 0.0781686 21.7633C-0.314053 26.2354 0.791298 30.4871 2.90929 34.3477C5.27688 38.6633 8.86393 41.8627 13.4636 43.7895C14.6688 44.2943 15.9738 44.5716 17.3644 44.9911C17.3858 44.472 17.4072 44.1876 17.4144 43.9033C17.4357 42.3107 17.3288 40.7038 17.5142 39.1326C17.6782 37.7106 17.1291 36.9925 15.8954 36.4593C13.7917 35.5492 12.4795 33.8713 11.7521 31.7526C10.4756 28.0342 10.1476 24.2233 10.8393 20.3414C12.3297 11.9233 19.9246 7.04602 27.2128 8.90168C31.0351 9.87572 33.9804 11.9518 35.8416 15.4072C38.8225 20.9599 38.1308 26.534 35.428 31.9161C34.1515 34.4614 32.2261 36.5304 29.0241 36.7579C28.3395 36.8077 28.0899 36.7224 28.0828 35.9616C28.0614 33.5443 27.9401 31.134 27.876 28.7167C27.8617 28.219 27.7904 27.8706 27.1628 27.8564C25.1803 27.8138 23.205 27.7427 21.2296 27.6502C20.602 27.6218 20.4166 27.8564 20.4238 28.475C20.5236 36.0185 20.6092 43.562 20.6947 51.1055C20.6947 51.4539 20.7375 51.8023 20.7589 52.1791H28.0542C28.0542 50.9277 28.0542 49.7262 28.0542 48.5317C28.0542 45.6807 28.0257 45.5741 30.7927 44.7991C36.0056 43.3416 40.3129 40.5972 43.6005 36.2958C45.7042 33.5443 47.1019 30.5084 47.3801 27.0246C47.4015 26.7117 47.1946 26.2354 46.9379 26.0648C45.5402 25.1334 44.007 24.3939 42.6805 23.3772C38.1664 19.9148 36.2552 15.3503 37.3249 9.7122C37.5888 8.31157 38.1807 6.97492 38.6371 5.55296L38.6228 5.54585Z" fill="white"/>
<path d="M93.9832 0.0214844C88.7274 0.0499236 83.6143 0.398304 78.7436 2.30373C71.5339 5.11922 66.7416 10.1458 64.7163 17.6822C64.5452 18.3221 64.6664 18.6278 65.2512 18.9336C66.5277 19.6161 67.7685 20.3555 68.9951 21.1234C70.564 22.1117 71.8762 23.363 72.8817 24.9342C75.613 29.1788 75.6272 33.6438 73.9442 38.2296C73.281 40.0355 73.2454 39.9786 74.8713 41.0451C78.3514 43.3273 82.1595 44.4578 86.3242 44.4578C92.7994 44.4507 99.2675 44.472 105.743 44.4649C113.929 44.4578 122.116 44.4293 130.31 44.4151C133.84 44.4151 137.377 44.4151 141 44.4151C140.914 44.0383 140.914 43.8534 140.836 43.7041C139.517 41.2726 138.197 38.8339 136.835 36.4308C136.7 36.1962 136.286 35.9971 136.001 35.9971C129.704 35.8905 123.407 35.7412 117.117 35.7483C109.166 35.7554 101.214 35.9331 93.2629 35.9616C90.8454 35.9687 88.4136 35.862 86.0104 35.599C82.352 35.1937 79.2143 33.6438 77.246 30.4372C74.8 26.4486 74.2794 22.069 75.506 17.5969C76.3831 14.4046 78.2444 11.8024 81.6104 10.7786C83.4075 10.2383 85.2759 9.8899 87.1443 9.64816C89.4762 9.34244 91.8367 9.23579 94.297 9.03672C94.1971 6.09326 94.0973 3.13558 93.9903 0.0428138L93.9832 0.0214844Z" fill="white"/>
<path d="M69.9079 0.277277C69.5228 0.241728 69.209 0.191959 68.8881 0.199069C64.6949 0.227508 60.4874 0.106641 56.3085 0.348375C53.62 0.504791 50.8958 0.981148 48.3072 1.71346C41.561 3.63311 38.4161 10.1812 41.2329 16.3241C42.6093 19.3173 45.0767 21.3507 47.972 22.858C51.4521 24.6639 54.9963 26.3632 58.4122 28.2757C61.3503 29.9181 62.0349 31.8875 61.1292 35.1367C61.0508 35.4068 60.8083 35.7694 60.573 35.8263C59.2965 36.1534 57.9986 36.5871 56.7007 36.6226C53.8696 36.7079 51.0313 36.5728 48.1931 36.5231C47.5655 36.5089 47.0164 36.5444 46.503 37.0563C44.7558 38.8053 43.0086 40.5686 41.1402 42.1825C40.3486 42.865 40.0491 43.5191 40.099 44.5074C40.1276 45.133 40.2773 45.4174 40.9334 45.4388C42.4952 45.4814 44.064 45.645 45.6258 45.6378C49.9973 45.6165 54.3688 45.4957 58.7474 45.4885C65.0301 45.4885 72.9601 40.1988 72.197 31.0912C72.0045 28.816 71.4482 26.6262 69.6226 25.0763C68.4388 24.0667 67.1694 23.114 65.8002 22.3817C63.0975 20.9384 60.3091 19.6515 57.5493 18.322C55.631 17.3906 53.7412 16.445 52.2864 14.8168C51.1668 13.5655 50.796 12.1649 51.3094 10.5652C51.4022 10.2737 51.6731 9.87552 51.9227 9.81864C53.0994 9.56269 54.2975 9.29251 55.4955 9.24985C58.1198 9.15743 60.7513 9.17165 63.3827 9.2072C64.9088 9.22852 66.221 8.98679 67.0268 7.47951C67.3691 6.83963 67.8754 6.25662 68.4103 5.75894C70.0434 4.23744 69.7938 2.26091 69.9079 0.270167V0.277277Z" fill="white"/>
<path d="M49.2128 53.4159C50.3609 52.5983 50.418 52.3708 49.6335 51.866C47.0591 50.2165 43.4222 51.2332 42.1813 54.006C41.1972 56.203 41.2828 58.4283 42.4024 60.5613C43.0513 61.7984 44.1139 62.68 45.5188 62.7866C46.8595 62.8933 48.2215 62.7227 49.5765 62.616C49.7833 62.6018 50.1399 62.289 50.1399 62.1112C50.1826 60.5044 50.1684 58.8905 50.1684 57.3192C50.04 57.2481 49.9901 57.1983 49.9402 57.1983C49.0559 57.1912 48.1716 57.1912 47.2802 57.1841C46.8024 57.1841 46.3246 57.0988 46.3175 57.8453C46.3104 58.5279 46.674 58.5776 47.2089 58.5918C48.4925 58.6203 48.6138 58.7838 48.5211 60.0707C48.4997 60.3622 48.4997 60.6679 48.4212 60.9452C48.3713 61.1229 48.2358 61.3433 48.0789 61.4073C46.6883 61.9974 44.392 61.0376 43.8215 59.5517C43.1868 57.9022 43.2653 56.1958 43.8358 54.5393C44.4277 52.8116 47.0306 51.7593 49.2057 53.4017L49.2128 53.4159Z" fill="white"/>
<path d="M104.716 51.0487C104.673 51.1412 104.609 51.2194 104.609 51.2976C104.637 54.2695 104.623 57.2414 104.73 60.2133C104.766 61.2655 105.415 62.0832 106.392 62.5595C109.059 63.8748 112.111 62.2538 112.261 59.3317C112.389 56.7793 112.275 54.2055 112.261 51.646C112.261 50.6719 111.49 51.063 111.02 50.999C110.435 50.9208 110.492 51.3189 110.492 51.7455C110.521 54.1273 110.563 56.5162 110.485 58.898C110.464 59.5734 110.178 60.3555 109.75 60.8745C109.166 61.5855 108.239 61.6281 107.383 61.2584C106.499 60.8674 106.156 60.0853 106.149 59.1824C106.128 56.829 106.142 54.4686 106.142 52.1152C106.142 51.7739 106.142 51.4398 106.142 51.0559H104.723L104.716 51.0487Z" fill="white"/>
<path d="M38.6229 5.54575C38.1665 6.96771 37.5746 8.30435 37.3107 9.70499C36.241 15.3431 38.1522 19.9076 42.6663 23.37C43.9927 24.3867 45.526 25.1333 46.9237 26.0575C47.1804 26.2282 47.3944 26.7045 47.3658 27.0174C47.0877 30.5012 45.69 33.5371 43.5862 36.2886C40.2987 40.59 35.9914 43.3344 30.7784 44.7919C28.0115 45.5669 28.04 45.6735 28.04 48.5245C28.04 49.7261 28.04 50.9277 28.04 52.1719H20.7447C20.7233 51.795 20.6805 51.4467 20.6805 51.0983C20.5878 43.5548 20.5094 36.0113 20.4095 28.4678C20.4024 27.8563 20.5878 27.6146 21.2154 27.643C23.1907 27.7355 25.1732 27.8066 27.1486 27.8492C27.7833 27.8634 27.8475 28.2118 27.8617 28.7095C27.9259 31.1268 28.0471 33.5371 28.0685 35.9544C28.0757 36.7223 28.3324 36.8005 29.0099 36.7507C32.2118 36.5232 34.1373 34.4471 35.4138 31.9089C38.1165 26.5268 38.8083 20.9527 35.8274 15.3999C33.9733 11.9446 31.0209 9.86851 27.1985 8.89447C19.9103 7.03881 12.3226 11.9161 10.8251 20.3341C10.1405 24.209 10.4614 28.027 11.7379 31.7454C12.4653 33.8641 13.7774 35.542 15.8812 36.4521C17.1149 36.9853 17.664 37.7034 17.5 39.1254C17.3145 40.6966 17.4215 42.3035 17.4001 43.896C17.4001 44.1804 17.3787 44.4719 17.3502 44.9838C15.9596 44.5644 14.6546 44.2871 13.4494 43.7823C8.8497 41.8555 5.26266 38.6561 2.89507 34.3405C0.791332 30.487 -0.314018 26.2353 0.0782029 21.7632C0.506081 16.8788 2.58842 12.6698 5.71906 8.95135C12.0802 1.3794 20.2384 -0.504697 29.6089 1.52871C32.7039 2.20414 35.5279 3.50523 38.1807 5.2187C38.3519 5.32535 38.5088 5.46043 38.63 5.54575H38.6229Z" fill="white"/>
<path d="M93.9831 0.0213294C94.09 3.1141 94.1899 6.07177 94.2897 9.01523C91.8294 9.21431 89.4761 9.32096 87.137 9.62668C85.2758 9.86841 83.4002 10.2168 81.6031 10.7571C78.23 11.7738 76.3759 14.376 75.4988 17.5754C74.2722 22.0475 74.7928 26.4272 77.2388 30.4158C79.207 33.6294 82.3448 35.1722 86.0032 35.5775C88.4064 35.8476 90.8382 35.9543 93.2557 35.9401C101.207 35.9116 109.158 35.7339 117.11 35.7268C123.407 35.7197 129.704 35.869 135.994 35.9756C136.279 35.9756 136.7 36.1747 136.828 36.4093C138.19 38.8195 139.509 41.2511 140.829 43.6827C140.907 43.8249 140.907 44.0168 140.993 44.3936C137.37 44.3936 133.84 44.3936 130.303 44.3936C122.116 44.4079 113.929 44.4363 105.735 44.4434C99.2602 44.4434 92.7922 44.4221 86.3169 44.4363C82.1523 44.4363 78.3441 43.3058 74.8641 41.0236C73.2381 39.9571 73.2738 40.014 73.937 38.2081C75.6271 33.6294 75.6057 29.1644 72.8744 24.9128C71.8689 23.3415 70.5568 22.0902 68.9879 21.1019C67.7613 20.334 66.5205 19.5946 65.2439 18.9121C64.6663 18.5993 64.538 18.3006 64.7091 17.6608C66.7344 10.1244 71.5195 5.10484 78.7364 2.28225C83.607 0.37682 88.7202 0.0284392 93.9759 0L93.9831 0.0213294Z" fill="white"/>
<path d="M69.9079 0.277426C69.7938 2.26817 70.0434 4.2447 68.4103 5.7662C67.8755 6.26388 67.3691 6.84689 67.0268 7.48677C66.221 8.99405 64.9088 9.23578 63.3828 9.21445C60.7513 9.1789 58.1199 9.16468 55.4955 9.25711C54.2975 9.29977 53.0994 9.56994 51.9228 9.8259C51.6732 9.88278 51.4022 10.2738 51.3095 10.5724C50.8031 12.165 51.1668 13.5657 52.2865 14.8241C53.7412 16.4522 55.631 17.405 57.5494 18.3292C60.3092 19.6659 63.0975 20.9456 65.8003 22.3889C67.1695 23.1212 68.4388 24.0739 69.6226 25.0835C71.4482 26.6406 72.0116 28.8233 72.197 31.0984C72.9601 40.2061 65.0301 45.4887 58.7474 45.4958C54.3759 45.4958 50.0044 45.6238 45.6258 45.6451C44.0641 45.6451 42.5023 45.4887 40.9334 45.446C40.2702 45.4247 40.1276 45.1474 40.0991 44.5146C40.0563 43.5264 40.3558 42.8723 41.1402 42.1897C43.0086 40.5758 44.7558 38.8197 46.503 37.0636C47.0164 36.5517 47.5655 36.5161 48.1931 36.5303C51.0313 36.5872 53.8696 36.7152 56.7007 36.6299C57.9986 36.5943 59.2965 36.1535 60.573 35.8336C60.8084 35.7767 61.058 35.4141 61.1293 35.1439C62.0349 31.9018 61.3503 29.9253 58.4122 28.283C54.9892 26.3704 51.4521 24.6712 47.972 22.8653C45.0767 21.358 42.6022 19.3317 41.2329 16.3314C38.4161 10.1885 41.561 3.64036 48.3072 1.72072C50.8959 0.981297 53.62 0.51205 56.3085 0.355634C60.4874 0.106791 64.6949 0.227657 68.8881 0.206328C69.2019 0.206328 69.5228 0.256097 69.9079 0.284536V0.277426Z" fill="white"/>
<path d="M62.9691 62.7792C62.9691 58.9896 62.9691 55.257 62.9905 51.5243C62.9905 51.3537 63.2972 51.0409 63.4469 51.048C65.1228 51.1191 66.8058 51.1404 68.4531 51.375C69.5727 51.5314 70.5069 52.1927 70.6852 53.4511C70.8849 54.8304 71.056 56.2879 69.7438 57.2477C68.938 57.8378 68.938 58.3569 69.3659 59.146C69.9863 60.3049 70.4998 61.5207 71.0631 62.7223C69.8366 63.1773 69.3088 62.9853 68.8524 61.9473C68.4602 61.0586 68.0323 60.1841 67.74 59.2598C67.4832 58.4422 67.0411 58.1791 66.1996 58.2147C64.6307 58.2858 64.6093 58.2573 64.6022 59.8001C64.6022 60.5325 64.538 61.279 64.6022 62.0042C64.6735 62.8503 64.3169 63.0493 63.5681 62.8716C63.4255 62.836 63.2758 62.8218 62.9691 62.7792ZM64.6378 54.8731C64.6616 56.1813 65.3415 56.8045 66.6774 56.7429C66.8271 56.7429 66.9698 56.7216 67.1195 56.7074C68.446 56.5865 69.1876 55.8542 69.1876 54.674C69.1876 53.5364 68.3604 52.7188 67.1053 52.605C64.7091 52.3846 64.595 52.4913 64.6378 54.8731Z" fill="white"/>
<path d="M125.347 50.8779C127.201 51.0557 129.005 51.0699 130.738 51.4325C132.613 51.8235 133.59 53.5512 133.384 55.5562C133.155 57.7602 131.836 59.1537 129.839 59.2959C129.219 59.3386 128.606 59.4026 127.985 59.4097C127.4 59.4168 127.158 59.6372 127.158 60.2558C127.158 61.1018 127.058 61.9479 126.994 62.8437H125.339V50.8779H125.347ZM128.634 52.499C127.201 52.5274 127.194 52.5274 127.165 53.9494C127.151 54.6532 127.122 55.3571 127.151 56.061C127.229 58.0731 127.351 58.1655 129.39 57.9095C129.447 57.9024 129.511 57.9095 129.568 57.8882C130.574 57.6109 131.365 57.0066 131.594 56.0041C131.843 54.9163 131.8 53.7503 130.702 53.0891C130.11 52.7336 129.326 52.6838 128.634 52.4919V52.499Z" fill="white"/>
<path d="M87.5436 62.8721C85.1546 62.8508 83.6499 61.571 83.4074 59.175C83.2648 57.7815 83.2149 56.3453 83.3861 54.9589C83.6713 52.6126 85.3757 51.084 87.4723 51.0485C89.5974 51.0129 91.2519 52.4633 91.6441 54.8522C91.9436 56.6581 92.072 58.4782 91.3874 60.2557C90.6742 62.0971 89.519 62.9005 87.5436 62.8792V62.8721ZM84.7267 57.4544C84.9835 58.464 85.1118 59.4381 85.4898 60.3126C85.882 61.2226 86.752 61.6137 87.7433 61.5639C88.6418 61.5212 89.519 60.8031 89.7543 59.9429C90.2606 58.0943 90.3605 56.2315 89.79 54.3759C89.4405 53.2454 88.6418 52.634 87.4438 52.5913C86.5809 52.5558 85.6324 53.1957 85.3472 54.2052C85.0476 55.2717 84.9264 56.3808 84.7267 57.4615V57.4544Z" fill="white"/>
<path d="M49.2128 53.4163C47.0378 51.7811 44.4348 52.8262 43.843 54.5539C43.2724 56.2105 43.194 57.9097 43.8287 59.5663C44.3992 61.0523 46.6955 62.0121 48.0861 61.422C48.243 61.358 48.3785 61.1376 48.4284 60.9598C48.5068 60.6826 48.5068 60.3768 48.5282 60.0853C48.6209 58.7985 48.4926 58.6349 47.2161 58.6065C46.6741 58.5923 46.3104 58.5425 46.3246 57.86C46.3318 57.1134 46.8096 57.1916 47.2874 57.1988C48.1716 57.2059 49.0559 57.1988 49.9473 57.213C49.9973 57.213 50.0472 57.2627 50.1755 57.3338C50.1755 58.9051 50.1969 60.519 50.147 62.1259C50.147 62.3036 49.7905 62.6164 49.5836 62.6306C48.2358 62.7373 46.8666 62.9008 45.5259 62.8013C44.1211 62.6946 43.0585 61.813 42.4096 60.5759C41.2899 58.443 41.2115 56.2105 42.1885 54.0207C43.4293 51.2478 47.0663 50.2311 49.6407 51.8806C50.4251 52.3854 50.3681 52.6058 49.2199 53.4306L49.2128 53.4163Z" fill="white"/>
<path d="M104.716 51.048H106.135C106.135 51.432 106.135 51.7661 106.135 52.1074C106.135 54.4608 106.121 56.8212 106.142 59.1746C106.149 60.0846 106.491 60.8596 107.376 61.2506C108.231 61.6274 109.158 61.5848 109.743 60.8667C110.171 60.3477 110.456 59.5656 110.478 58.8902C110.563 56.5084 110.513 54.1195 110.485 51.7377C110.485 51.3111 110.428 50.913 111.013 50.9912C111.49 51.0552 112.253 50.6641 112.253 51.6382C112.268 54.1977 112.375 56.7643 112.253 59.3239C112.104 62.246 109.051 63.867 106.384 62.5517C105.407 62.0682 104.766 61.2577 104.723 60.2055C104.616 57.2336 104.63 54.2617 104.602 51.2898C104.602 51.2116 104.666 51.1334 104.709 51.0409L104.716 51.048Z" fill="white"/>
</svg>
