<svg width="638" height="127" viewBox="0 0 638 127" fill="none" xmlns="http://www.w3.org/2000/svg">
<path d="M621.617 33.217C619.067 28.2219 607.738 -6.14769 594.994 6.59474C588.576 13.0124 593.184 26.0783 595.748 32.7147C597.924 38.3457 619.737 73.9935 625.635 66.6204C632.567 57.9553 637.61 30.0427 632.416 19.6547C624.855 4.53158 619.484 24.4306 623.877 33.217" stroke="#FFB216" stroke-width="6.49254" stroke-linecap="round"/>
<path d="M3.51251 22.8272C35.3918 48.4007 60.5718 59.2262 101.47 57.4086C138.404 55.7671 178.579 38.2267 212.93 25.4449C255.459 9.61995 338.942 -2.74818 363.655 47.6266C382.843 86.7412 354.082 133.514 308.821 120.785C291.371 115.877 282.354 92.5825 290.083 76.4214C298.431 58.9662 323.387 50.5514 340.646 46.5244C386.998 35.7092 417.879 79.1285 459.821 86.7544C499.007 93.8791 528.106 76.3259 557.779 52.5865C560.32 50.5531 559.019 64.0824 559.019 67.4661C559.019 79.8708 561.499 74.3653 561.499 64.9862C561.499 58.9541 564.676 46.1291 556.539 49.5554C550.668 52.0273 538.327 52.5865 531.739 52.5865" stroke="#FFB216" stroke-width="6.49254" stroke-linecap="round"/>
</svg>
