<svg width="126" height="639" viewBox="0 0 126 639" fill="none" xmlns="http://www.w3.org/2000/svg">
<path d="M32.9022 16.7665C27.9071 19.3161 -6.46245 30.6457 6.27999 43.3889C12.6976 49.8069 25.7635 45.1995 32.3999 42.6353C38.0309 40.4597 73.6787 18.6465 66.3057 12.7481C57.6405 5.816 29.728 0.772914 19.34 5.9669C4.21682 13.5284 24.1158 18.8993 32.9022 14.5062" stroke="#FFB216" stroke-width="6.49254" stroke-linecap="round"/>
<path d="M22.5124 634.871C48.086 602.992 58.9115 577.812 57.0938 536.913C55.4523 499.98 37.9119 459.805 25.1302 425.454C9.30519 382.925 -3.06293 299.441 47.3118 274.729C86.4265 255.54 133.2 284.301 120.47 329.563C115.562 347.012 92.2677 356.029 76.1067 348.3C58.6515 339.952 50.2367 314.996 46.2096 297.737C35.3944 251.385 78.8138 220.505 86.4397 178.562C93.5643 139.376 76.0111 110.278 52.2718 80.6046C50.2383 78.0629 63.7676 79.3647 67.1514 79.3647C79.556 79.3647 74.0505 76.8846 64.6714 76.8846C58.6394 76.8846 45.8143 73.7071 49.2406 81.8446C51.7125 87.7155 52.2718 100.056 52.2718 106.644" stroke="#FFB216" stroke-width="6.49254" stroke-linecap="round"/>
</svg>
